{"accessors" : [{"bufferView" : 0, "byteOffset" : 0, "componentType" : 5123, "count" : 279684, "type" : "SCALAR", "max" : [51116], "min" : [0]}, {"bufferView" : 1, "byteOffset" : 0, "componentType" : 5126, "count" : 51117, "type" : "VEC3", "max" : [24.78984260559082, 19.6109619140625, 0.0012730989838019013], "min" : [-24.880414962768555, -19.768014907836914, -46.862239837646484], "name" : "POSITION"}, {"bufferView" : 1, "byteOffset" : 12, "componentType" : 5126, "count" : 51117, "type" : "VEC3", "max" : [1.0000044107437134, 1.0000044107437134, 1.0000044107437134], "min" : [-1.0000044107437134, -1.0000044107437134, -1.0000044107437134], "name" : "NORMAL"}, {"bufferView" : 1, "byteOffset" : 24, "componentType" : 5126, "count" : 51117, "type" : "VEC2", "max" : [0.9778805375099182, 1.9900000095367432], "min" : [0.009999999776482582, 1.0103209018707275], "name" : "TEXCOORD_0"}, {"bufferView" : 0, "byteOffset" : 559368, "componentType" : 5123, "count" : 5790, "type" : "SCALAR", "max" : [1082], "min" : [0]}, {"bufferView" : 2, "byteOffset" : 0, "componentType" : 5126, "count" : 1083, "type" : "VEC3", "max" : [7.123970031738281, -8.205474853515625, -85.75791931152344], "min" : [-6.826595306396484, -10.399200439453125, -89.41942596435547], "name" : "POSITION"}, {"bufferView" : 2, "byteOffset" : 12, "componentType" : 5126, "count" : 1083, "type" : "VEC3", "max" : [0.9971473813056946, 0.9999881982803345, 0.9999322891235352], "min" : [-0.9857358336448669, -0.999748945236206, -0.9999321699142456], "name" : "NORMAL"}, {"bufferView" : 2, "byteOffset" : 24, "componentType" : 5126, "count" : 1083, "type" : "VEC2", "max" : [0.8065726161003113, 1.9674804210662842], "min" : [0.2727290689945221, 1.2611844539642334], "name" : "TEXCOORD_0"}, {"bufferView" : 0, "byteOffset" : 570948, "componentType" : 5123, "count" : 10164, "type" : "SCALAR", "max" : [1841], "min" : [0]}, {"bufferView" : 3, "byteOffset" : 0, "componentType" : 5126, "count" : 1842, "type" : "VEC3", "max" : [24.890811920166016, 19.14239501953125, -44.439208984375], "min" : [-25.025287628173828, 3.3008170127868652, -46.64655303955078], "name" : "POSITION"}, {"bufferView" : 3, "byteOffset" : 12, "componentType" : 5126, "count" : 1842, "type" : "VEC3", "max" : [0.9999747276306152, 0.9999063611030579, 0.9999849796295166], "min" : [-1.0000042915344238, -0.9998711347579956, -0.9999849796295166], "name" : "NORMAL"}, {"bufferView" : 3, "byteOffset" : 24, "componentType" : 5126, "count" : 1842, "type" : "VEC2", "max" : [0.759397029876709, 1.6071662902832031], "min" : [0.014503944665193558, 1.0117584466934204], "name" : "TEXCOORD_0"}, {"bufferView" : 0, "byteOffset" : 591276, "componentType" : 5123, "count" : 4992, "type" : "SCALAR", "max" : [981], "min" : [0]}, {"bufferView" : 4, "byteOffset" : 0, "componentType" : 5126, "count" : 982, "type" : "VEC3", "max" : [13.12217903137207, 14.333465576171875, -12.069134712219238], "min" : [-13.122897148132324, 10.650776863098145, -31.084102630615234], "name" : "POSITION"}, {"bufferView" : 4, "byteOffset" : 12, "componentType" : 5126, "count" : 982, "type" : "VEC3", "max" : [0.9978320002555847, 0.982287585735321, 0.9820969700813293], "min" : [-0.9979053139686584, -0.9825332760810852, -0.9821339845657349], "name" : "NORMAL"}, {"bufferView" : 4, "byteOffset" : 24, "componentType" : 5126, "count" : 982, "type" : "VEC2", "max" : [0.8900647759437561, 1.7017487287521362], "min" : [0.28023561835289, 1.012413740158081], "name" : "TEXCOORD_0"}, {"bufferView" : 0, "byteOffset" : 601260, "componentType" : 5123, "count" : 4800, "type" : "SCALAR", "max" : [980], "min" : [0]}, {"bufferView" : 5, "byteOffset" : 0, "componentType" : 5126, "count" : 981, "type" : "VEC3", "max" : [7.114938735961914, -15.71017074584961, -40.10630416870117], "min" : [-6.82004451751709, -20.601465225219727, -57.947540283203125], "name" : "POSITION"}, {"bufferView" : 5, "byteOffset" : 12, "componentType" : 5126, "count" : 981, "type" : "VEC3", "max" : [1.0000044107437134, 1.0000044107437134, 0.9848571419715881], "min" : [-1.0000044107437134, -0.9848201274871826, -0.9965370297431946], "name" : "NORMAL"}, {"bufferView" : 5, "byteOffset" : 24, "componentType" : 5126, "count" : 981, "type" : "VEC2", "max" : [0.3631918132305145, 1.9374542236328125], "min" : [0.010000018402934074, 1.0099999904632568], "name" : "TEXCOORD_0"}, {"bufferView" : 0, "byteOffset" : 610860, "componentType" : 5123, "count" : 3696, "type" : "SCALAR", "max" : [681], "min" : [0]}, {"bufferView" : 6, "byteOffset" : 0, "componentType" : 5126, "count" : 682, "type" : "VEC3", "max" : [7.046855449676514, -18.6942081451416, -56.58282470703125], "min" : [-6.746854782104492, -25.332414627075195, -86.28215789794922], "name" : "POSITION"}, {"bufferView" : 6, "byteOffset" : 12, "componentType" : 5126, "count" : 682, "type" : "VEC3", "max" : [1.0000044107437134, 0.9886609315872192, 0.9848201274871826], "min" : [-1.0000044107437134, -0.9885885715484619, -0.9848201274871826], "name" : "NORMAL"}, {"bufferView" : 6, "byteOffset" : 24, "componentType" : 5126, "count" : 682, "type" : "VEC2", "max" : [0.9527148604393005, 1.9674804210662842], "min" : [0.07155368477106094, 1.5386043787002563], "name" : "TEXCOORD_0"}, {"bufferView" : 0, "byteOffset" : 618252, "componentType" : 5123, "count" : 4608, "type" : "SCALAR", "max" : [913], "min" : [0]}, {"bufferView" : 7, "byteOffset" : 0, "componentType" : 5126, "count" : 914, "type" : "VEC3", "max" : [22.314449310302734, 4.876830577850342, -44.7532958984375], "min" : [-22.279447555541992, 3.658461570739746, -45.991607666015625], "name" : "POSITION"}, {"bufferView" : 7, "byteOffset" : 12, "componentType" : 5126, "count" : 914, "type" : "VEC3", "max" : [1.0000044107437134, 1.0000044107437134, 1.0000044107437134], "min" : [-1.0000044107437134, -1.0000044107437134, -1.0000044107437134], "name" : "NORMAL"}, {"bufferView" : 7, "byteOffset" : 24, "componentType" : 5126, "count" : 914, "type" : "VEC2", "max" : [0.32844221591949463, 1.9209398031234741], "min" : [0.011501327157020569, 1.0106782913208008], "name" : "TEXCOORD_0"}, {"bufferView" : 0, "byteOffset" : 627468, "componentType" : 5123, "count" : 3600, "type" : "SCALAR", "max" : [702], "min" : [0]}, {"bufferView" : 8, "byteOffset" : 0, "componentType" : 5126, "count" : 703, "type" : "VEC3", "max" : [17.571508407592773, -5.876183032989502, 0.10381489992141724], "min" : [-17.57067108154297, -11.483818054199219, -5.5538153648376465], "name" : "POSITION"}, {"bufferView" : 8, "byteOffset" : 12, "componentType" : 5126, "count" : 703, "type" : "VEC3", "max" : [1.0000044107437134, 1.0000044107437134, 1.0000044107437134], "min" : [-1.0000044107437134, -1.0000044107437134, -1.0000044107437134], "name" : "NORMAL"}, {"bufferView" : 8, "byteOffset" : 24, "componentType" : 5126, "count" : 703, "type" : "VEC2", "max" : [0.818431556224823, 1.9884986877441406], "min" : [0.0100000174716115, 1.0173484086990356], "name" : "TEXCOORD_0"}], "asset" : {"generator" : "Aspose.3D 25.3.0", "version" : "2.0"}, "buffers" : [{"uri" : "data:application/octet-stream;base64,", "byteLength" : 2500432}], "bufferViews" : [{"buffer" : 0, "byteOffset" : 0, "byteLength" : 634668, "target" : 34963}, {"buffer" : 0, "byteOffset" : 634672, "byteLength" : 1635744, "byteStride" : 32, "target" : 34962}, {"buffer" : 0, "byteOffset" : 2270420, "byteLength" : 34656, "byteStride" : 32, "target" : 34962}, {"buffer" : 0, "byteOffset" : 2305080, "byteLength" : 58944, "byteStride" : 32, "target" : 34962}, {"buffer" : 0, "byteOffset" : 2364028, "byteLength" : 31424, "byteStride" : 32, "target" : 34962}, {"buffer" : 0, "byteOffset" : 2395456, "byteLength" : 31392, "byteStride" : 32, "target" : 34962}, {"buffer" : 0, "byteOffset" : 2426852, "byteLength" : 21824, "byteStride" : 32, "target" : 34962}, {"buffer" : 0, "byteOffset" : 2448680, "byteLength" : 29248, "byteStride" : 32, "target" : 34962}, {"buffer" : 0, "byteOffset" : 2477932, "byteLength" : 22496, "byteStride" : 32, "target" : 34962}], "images" : [{"uri" : "data:image/png;base64,"}, {"uri" : "data:image/png;base64,"}, {"uri" : "data:image/png;base64,"}], "materials" : [{"name" : "m_basket", "pbrMetallicRoughness" : {"baseColorFactor" : [1, 1, 1, 1], "baseColorTexture" : {"index" : 1, "texCoord" : 0}, "metallicFactor" : 1, "roughnessFactor" : 1, "metallicRoughnessTexture" : {"index" : 2, "texCoord" : 0}}, "normalTexture" : {"index" : 0, "texCoord" : 0, "scale" : 1}, "emissiveFactor" : [0, 0, 0], "alphaMode" : "OPAQUE", "doubleSided" : true}, {"name" : "m_basket", "pbrMetallicRoughness" : {"baseColorFactor" : [1, 1, 1, 1], "baseColorTexture" : {"index" : 1, "texCoord" : 0}, "metallicFactor" : 1, "roughnessFactor" : 1, "metallicRoughnessTexture" : {"index" : 2, "texCoord" : 0}}, "normalTexture" : {"index" : 0, "texCoord" : 0, "scale" : 1}, "emissiveFactor" : [0, 0, 0], "alphaMode" : "OPAQUE", "doubleSided" : true}, {"name" : "m_basket", "pbrMetallicRoughness" : {"baseColorFactor" : [1, 1, 1, 1], "baseColorTexture" : {"index" : 1, "texCoord" : 0}, "metallicFactor" : 1, "roughnessFactor" : 1, "metallicRoughnessTexture" : {"index" : 2, "texCoord" : 0}}, "normalTexture" : {"index" : 0, "texCoord" : 0, "scale" : 1}, "emissiveFactor" : [0, 0, 0], "alphaMode" : "OPAQUE", "doubleSided" : true}, {"name" : "m_basket", "pbrMetallicRoughness" : {"baseColorFactor" : [1, 1, 1, 1], "baseColorTexture" : {"index" : 1, "texCoord" : 0}, "metallicFactor" : 1, "roughnessFactor" : 1, "metallicRoughnessTexture" : {"index" : 2, "texCoord" : 0}}, "normalTexture" : {"index" : 0, "texCoord" : 0, "scale" : 1}, "emissiveFactor" : [0, 0, 0], "alphaMode" : "OPAQUE", "doubleSided" : true}, {"name" : "m_basket", "pbrMetallicRoughness" : {"baseColorFactor" : [1, 1, 1, 1], "baseColorTexture" : {"index" : 1, "texCoord" : 0}, "metallicFactor" : 1, "roughnessFactor" : 1, "metallicRoughnessTexture" : {"index" : 2, "texCoord" : 0}}, "normalTexture" : {"index" : 0, "texCoord" : 0, "scale" : 1}, "emissiveFactor" : [0, 0, 0], "alphaMode" : "OPAQUE", "doubleSided" : true}, {"name" : "m_basket", "pbrMetallicRoughness" : {"baseColorFactor" : [1, 1, 1, 1], "baseColorTexture" : {"index" : 1, "texCoord" : 0}, "metallicFactor" : 1, "roughnessFactor" : 1, "metallicRoughnessTexture" : {"index" : 2, "texCoord" : 0}}, "normalTexture" : {"index" : 0, "texCoord" : 0, "scale" : 1}, "emissiveFactor" : [0, 0, 0], "alphaMode" : "OPAQUE", "doubleSided" : true}, {"name" : "m_basket", "pbrMetallicRoughness" : {"baseColorFactor" : [1, 1, 1, 1], "baseColorTexture" : {"index" : 1, "texCoord" : 0}, "metallicFactor" : 1, "roughnessFactor" : 1, "metallicRoughnessTexture" : {"index" : 2, "texCoord" : 0}}, "normalTexture" : {"index" : 0, "texCoord" : 0, "scale" : 1}, "emissiveFactor" : [0, 0, 0], "alphaMode" : "OPAQUE", "doubleSided" : true}, {"name" : "m_basket", "pbrMetallicRoughness" : {"baseColorFactor" : [1, 1, 1, 1], "baseColorTexture" : {"index" : 1, "texCoord" : 0}, "metallicFactor" : 1, "roughnessFactor" : 1, "metallicRoughnessTexture" : {"index" : 2, "texCoord" : 0}}, "normalTexture" : {"index" : 0, "texCoord" : 0, "scale" : 1}, "emissiveFactor" : [0, 0, 0], "alphaMode" : "OPAQUE", "doubleSided" : true}], "meshes" : [{"primitives" : [{"attributes" : {"POSITION" : 1, "NORMAL" : 2, "TEXCOORD_0" : 3}, "indices" : 0, "material" : 0, "mode" : 4}]}, {"primitives" : [{"attributes" : {"POSITION" : 5, "NORMAL" : 6, "TEXCOORD_0" : 7}, "indices" : 4, "material" : 1, "mode" : 4}]}, {"primitives" : [{"attributes" : {"POSITION" : 9, "NORMAL" : 10, "TEXCOORD_0" : 11}, "indices" : 8, "material" : 2, "mode" : 4}]}, {"primitives" : [{"attributes" : {"POSITION" : 13, "NORMAL" : 14, "TEXCOORD_0" : 15}, "indices" : 12, "material" : 3, "mode" : 4}]}, {"primitives" : [{"attributes" : {"POSITION" : 17, "NORMAL" : 18, "TEXCOORD_0" : 19}, "indices" : 16, "material" : 4, "mode" : 4}]}, {"primitives" : [{"attributes" : {"POSITION" : 21, "NORMAL" : 22, "TEXCOORD_0" : 23}, "indices" : 20, "material" : 5, "mode" : 4}]}, {"primitives" : [{"attributes" : {"POSITION" : 25, "NORMAL" : 26, "TEXCOORD_0" : 27}, "indices" : 24, "material" : 6, "mode" : 4}]}, {"primitives" : [{"attributes" : {"POSITION" : 29, "NORMAL" : 30, "TEXCOORD_0" : 31}, "indices" : 28, "material" : 7, "mode" : 4}]}], "nodes" : [{"mesh" : 0, "name" : "Body"}, {"matrix" : [1, 0, 0, 0, 0, 0.984807749827075, -0.1736482101254433, 0, 0, 0.1736482101254433, 0.984807749827075, 0, 0, 0, 0, 1], "mesh" : 1, "name" : "HandleA"}, {"mesh" : 2, "name" : "HandleB"}, {"mesh" : 3, "name" : "Label"}, {"mesh" : 4, "name" : "Rod1"}, {"mesh" : 5, "name" : "Rod2"}, {"mesh" : 6, "name" : "Screws"}, {"mesh" : 7, "name" : "Wheels"}, {"children" : [0, 1, 2, 3, 4, 5, 6, 7], "matrix" : [0.009999999776482582, 0, 0, 0, 0, -1.3435885348189617E-09, 0.010000001120071118, 0, 0, -0.010000001120071118, -1.3435885348189617E-09, 0, 0, 0, 0, 1], "name" : "Shopping_Basket"}], "samplers" : [{"magFilter" : 9729, "minFilter" : 9987, "wrapS" : 10497, "wrapT" : 10497}, {"magFilter" : 9729, "minFilter" : 9987, "wrapS" : 10497, "wrapT" : 10497}, {"magFilter" : 9729, "minFilter" : 9987, "wrapS" : 10497, "wrapT" : 10497}], "scene" : 0, "scenes" : [{"nodes" : [8]}], "textures" : [{"sampler" : 0, "source" : 0, "name" : ""}, {"sampler" : 1, "source" : 1, "name" : ""}, {"sampler" : 2, "source" : 2, "name" : ""}]}